<svg width="141" height="162" viewBox="0 0 141 162" fill="none" xmlns="http://www.w3.org/2000/svg">
<path d="M51.3442 95.2915C50.8293 93.874 50.1561 91.7414 49.714 89.0871C47.9964 78.7999 51.3133 70.3644 52.989 66.4294C55.4288 60.7011 58.2671 56.6384 61.3401 52.4006C63.7345 49.0968 65.9669 46.4808 67.6554 44.6163C67.044 46.5045 66.349 49.551 66.7675 53.2142C66.8876 54.2705 67.206 56.2918 68.1775 58.6524C68.9035 60.422 69.7586 61.7975 70.4427 62.7607C66.6146 68.6423 63.6308 73.5861 61.4984 77.2292C58.9094 81.6495 56.3694 86.2175 54.4572 89.6526C53.1563 91.9914 52.0865 93.9379 51.346 95.2897L51.3442 95.2915Z" stroke="white" stroke-width="48" stroke-linejoin="round"/>
<path d="M96.5587 64.3223C88.1566 75.9449 81.7941 84.3676 80.0438 86.4911C79.4597 87.1989 78.3098 88.5726 76.4995 90.0795C75.9191 90.5629 75.2769 91.05 74.5618 91.5316C71.9782 93.2775 68.898 94.341 64.6005 95.5268C62.3444 96.1489 59.4679 96.8859 56.0856 97.6065C56.2129 97.4879 56.3785 97.311 56.5368 97.072C56.6296 96.9315 56.8224 96.6342 56.9279 96.1963C56.968 96.0303 57.0098 95.7877 56.9989 95.4903C57.0025 95.3243 56.9989 94.6621 56.5259 94.2042C55.9473 93.6478 54.892 93.6113 54.0387 94.2279C54.2079 93.9069 54.4808 93.4307 54.7756 92.8323C57.7085 86.887 61.1308 80.6041 65.1317 74.1151C67.4588 70.3425 69.804 66.7888 72.1347 63.4467C73.8886 64.0687 75.8536 64.6306 78.0151 65.0447C85.593 66.4969 92.1539 65.4753 96.5569 64.3223H96.5587Z" stroke="white" stroke-width="48" stroke-linejoin="round"/>
<path d="M71.0813 61.5968C69.9005 59.5409 68.1629 55.8576 67.8118 50.9795C67.6062 48.1135 67.9391 45.6726 68.3394 43.8684C71.3178 40.6886 76.2248 36.0294 82.9676 31.9922C82.9676 31.9922 89.4812 28.0919 96.6242 25.8134C96.8953 25.7276 97.3702 25.5762 98.0052 25.3974C100.449 24.7097 103.807 24.0328 107.83 24C111.527 23.9708 114.657 24.4944 117 25.0672C114.564 26.0815 111.08 27.6395 107.053 29.8359C102.423 32.3626 89.9124 39.6524 77.7277 53.3675C74.6801 56.7971 72.4259 59.7598 71.0831 61.595L71.0813 61.5968Z" stroke="white" stroke-width="48" stroke-linejoin="round"/>
<path d="M117 25.5853C113.57 34.1431 109.226 43.3813 103.682 52.9497C101.586 56.5691 99.4534 59.9988 97.3174 63.2424C94.7284 63.9301 91.4388 64.5394 87.6089 64.6343C81.3592 64.7875 76.2539 63.5014 72.8716 62.3357C79.5489 53.4605 89.4138 42.699 103.438 33.3842C108.118 30.2756 112.686 27.7106 117.002 25.5853H117Z" stroke="white" stroke-width="48" stroke-linejoin="round"/>
<path d="M49.4938 95.4356C49.3846 95.4812 48.9152 95.6874 48.8115 96.1197C48.7842 96.2347 48.7369 96.5539 49.2209 97.1596C49.7831 97.8619 50.5108 98.2614 51.1676 98.5187C52.3666 98.9875 53.3946 99.0058 53.9914 99.0112C54.6991 99.0167 55.7581 98.9474 56.9989 98.5552C57.0098 98.8762 57.0135 100.135 56.0856 101.23C55.9782 101.355 54.8738 102.62 53.1872 102.589C52.7505 102.581 52.3939 102.488 52.1574 102.412C52.2975 102.589 52.7742 103.233 52.7505 104.17C52.7214 105.292 51.9973 105.982 51.8627 106.106C49.3155 104.411 46.7683 102.716 44.2211 101.023C44.403 100.77 44.9143 100.13 45.8313 99.8194C46.4262 99.6187 46.9484 99.6388 47.2504 99.6753C46.3662 98.9747 46.046 97.7944 46.4408 96.8184C46.8974 95.6874 48.2256 95.0489 49.4938 95.4356Z" stroke="white" stroke-width="48" stroke-linejoin="round"/>
<path d="M43.6971 102.029L51.044 106.976C49.9396 107.381 48.1183 108.244 46.7683 110.088C46.519 110.429 46.2188 110.895 45.824 111.759C44.7324 114.153 44.414 116.331 43.9846 120.268C43.7663 122.264 43.5879 124.097 43.4388 125.741C42.6309 125.958 41.7958 126.211 40.9389 126.511C40.9389 126.511 39.6307 126.905 38.308 127.547C34.7273 129.287 30.3862 132.845 30.3862 132.845C28.8451 134.109 26.8729 135.822 24.6877 138C27.8863 134.136 31.0921 129.946 34.2343 125.416C35.093 124.177 35.9245 122.946 36.7305 121.722C36.8488 121.736 37.9914 121.868 38.7465 121.04C39.4797 120.235 39.5361 118.872 38.7246 117.995C37.9659 117.174 36.6978 117.05 35.8154 117.663C34.822 118.352 34.549 119.817 35.2986 120.903C31.5324 126.403 27.7662 131.903 24 137.403C26.1378 133.877 27.2422 130.776 27.8481 128.619C28.323 126.928 28.5777 125.513 28.8106 124.197C29.4237 120.733 29.6493 117.827 29.7385 115.784C31.2995 115.461 37.8331 113.925 41.5284 107.903C42.8547 105.743 43.4333 103.627 43.6989 102.034L43.6971 102.029Z" stroke="white" stroke-width="48" stroke-linejoin="round"/>
<path d="M51.3442 95.2915C50.8293 93.874 50.1561 91.7414 49.714 89.0871C47.9964 78.7999 51.3133 70.3644 52.989 66.4294C55.4288 60.7011 58.2671 56.6384 61.3401 52.4006C63.7345 49.0968 65.9669 46.4808 67.6554 44.6163C67.044 46.5045 66.349 49.551 66.7675 53.2142C66.8876 54.2705 67.206 56.2918 68.1775 58.6524C68.9035 60.422 69.7586 61.7975 70.4427 62.7607C66.6146 68.6423 63.6308 73.5861 61.4984 77.2292C58.9094 81.6495 56.3694 86.2175 54.4572 89.6526C53.1563 91.9914 52.0865 93.9379 51.346 95.2897L51.3442 95.2915Z" stroke="black" stroke-width="24" stroke-linejoin="round"/>
<path d="M96.5587 64.3223C88.1566 75.9449 81.7941 84.3676 80.0438 86.4911C79.4597 87.1989 78.3098 88.5726 76.4995 90.0795C75.9191 90.5629 75.2769 91.05 74.5618 91.5316C71.9782 93.2775 68.898 94.341 64.6005 95.5268C62.3444 96.1489 59.4679 96.8859 56.0856 97.6065C56.2129 97.4879 56.3785 97.311 56.5368 97.072C56.6296 96.9315 56.8224 96.6342 56.9279 96.1963C56.968 96.0303 57.0098 95.7877 56.9989 95.4903C57.0025 95.3243 56.9989 94.6621 56.5259 94.2042C55.9473 93.6478 54.892 93.6113 54.0387 94.2279C54.2079 93.9069 54.4808 93.4307 54.7756 92.8323C57.7085 86.887 61.1308 80.6041 65.1317 74.1151C67.4588 70.3425 69.804 66.7888 72.1347 63.4467C73.8886 64.0687 75.8536 64.6306 78.0151 65.0447C85.593 66.4969 92.1539 65.4753 96.5569 64.3223H96.5587Z" stroke="black" stroke-width="24" stroke-linejoin="round"/>
<path d="M71.0813 61.5968C69.9005 59.5409 68.1629 55.8576 67.8118 50.9795C67.6062 48.1135 67.9391 45.6726 68.3394 43.8684C71.3178 40.6886 76.2248 36.0294 82.9676 31.9922C82.9676 31.9922 89.4812 28.0919 96.6242 25.8134C96.8953 25.7276 97.3702 25.5762 98.0052 25.3974C100.449 24.7097 103.807 24.0328 107.83 24C111.527 23.9708 114.657 24.4944 117 25.0672C114.564 26.0815 111.08 27.6395 107.053 29.8359C102.423 32.3626 89.9124 39.6524 77.7277 53.3675C74.6801 56.7971 72.4259 59.7598 71.0831 61.595L71.0813 61.5968Z" stroke="black" stroke-width="24" stroke-linejoin="round"/>
<path d="M117 25.5853C113.57 34.1431 109.226 43.3813 103.682 52.9497C101.586 56.5691 99.4534 59.9988 97.3174 63.2424C94.7284 63.9301 91.4388 64.5394 87.6089 64.6343C81.3592 64.7875 76.2539 63.5014 72.8716 62.3357C79.5489 53.4605 89.4138 42.699 103.438 33.3842C108.118 30.2756 112.686 27.7106 117.002 25.5853H117Z" stroke="black" stroke-width="24" stroke-linejoin="round"/>
<path d="M49.4938 95.4356C49.3846 95.4812 48.9152 95.6874 48.8115 96.1197C48.7842 96.2347 48.7369 96.5539 49.2209 97.1596C49.7831 97.8619 50.5108 98.2614 51.1676 98.5187C52.3666 98.9875 53.3946 99.0058 53.9914 99.0112C54.6991 99.0167 55.7581 98.9474 56.9989 98.5552C57.0098 98.8762 57.0135 100.135 56.0856 101.23C55.9782 101.355 54.8738 102.62 53.1872 102.589C52.7505 102.581 52.3939 102.488 52.1574 102.412C52.2975 102.589 52.7742 103.233 52.7505 104.17C52.7214 105.292 51.9973 105.982 51.8627 106.106C49.3155 104.411 46.7683 102.716 44.2211 101.023C44.403 100.77 44.9143 100.13 45.8313 99.8194C46.4262 99.6187 46.9484 99.6388 47.2504 99.6753C46.3662 98.9747 46.046 97.7944 46.4408 96.8184C46.8974 95.6874 48.2256 95.0489 49.4938 95.4356Z" stroke="black" stroke-width="24" stroke-linejoin="round"/>
<path d="M43.6971 102.029L51.044 106.976C49.9396 107.381 48.1183 108.244 46.7683 110.088C46.519 110.429 46.2188 110.895 45.824 111.759C44.7324 114.153 44.414 116.331 43.9846 120.268C43.7663 122.264 43.5879 124.097 43.4388 125.741C42.6309 125.958 41.7958 126.211 40.9389 126.511C40.9389 126.511 39.6307 126.905 38.308 127.547C34.7273 129.287 30.3862 132.845 30.3862 132.845C28.8451 134.109 26.8729 135.822 24.6877 138C27.8863 134.136 31.0921 129.946 34.2343 125.416C35.093 124.177 35.9245 122.946 36.7305 121.722C36.8488 121.736 37.9914 121.868 38.7465 121.04C39.4797 120.235 39.5361 118.872 38.7246 117.995C37.9659 117.174 36.6978 117.05 35.8154 117.663C34.822 118.352 34.549 119.817 35.2986 120.903C31.5324 126.403 27.7662 131.903 24 137.403C26.1378 133.877 27.2422 130.776 27.8481 128.619C28.323 126.928 28.5777 125.513 28.8106 124.197C29.4237 120.733 29.6493 117.827 29.7385 115.784C31.2995 115.461 37.8331 113.925 41.5284 107.903C42.8547 105.743 43.4333 103.627 43.6989 102.034L43.6971 102.029Z" stroke="black" stroke-width="24" stroke-linejoin="round"/>
<path d="M51.3442 95.2915C50.8293 93.874 50.1561 91.7414 49.714 89.0871C47.9964 78.7999 51.3133 70.3644 52.989 66.4294C55.4288 60.7011 58.2671 56.6384 61.3401 52.4006C63.7345 49.0968 65.9669 46.4808 67.6554 44.6163C67.044 46.5045 66.349 49.551 66.7675 53.2142C66.8876 54.2705 67.206 56.2918 68.1775 58.6524C68.9035 60.422 69.7586 61.7975 70.4427 62.7607C66.6146 68.6423 63.6308 73.5861 61.4984 77.2292C58.9094 81.6495 56.3694 86.2175 54.4572 89.6526C53.1563 91.9914 52.0865 93.9379 51.346 95.2897L51.3442 95.2915Z" fill="#FDFDFD"/>
<path d="M96.5587 64.3223C88.1566 75.9449 81.7941 84.3676 80.0438 86.4911C79.4597 87.1989 78.3098 88.5726 76.4995 90.0795C75.9191 90.5629 75.2769 91.05 74.5618 91.5316C71.9782 93.2775 68.898 94.341 64.6005 95.5268C62.3444 96.1489 59.4679 96.8859 56.0856 97.6065C56.2129 97.4879 56.3785 97.311 56.5368 97.072C56.6296 96.9315 56.8224 96.6342 56.9279 96.1963C56.968 96.0303 57.0098 95.7877 56.9989 95.4903C57.0025 95.3243 56.9989 94.6621 56.5259 94.2042C55.9473 93.6478 54.892 93.6113 54.0387 94.2279C54.2079 93.9069 54.4808 93.4307 54.7756 92.8323C57.7085 86.887 61.1308 80.6041 65.1317 74.1151C67.4588 70.3425 69.804 66.7888 72.1347 63.4467C73.8886 64.0687 75.8536 64.6306 78.0151 65.0447C85.593 66.4969 92.1539 65.4753 96.5569 64.3223H96.5587Z" fill="#FDFDFD"/>
<path d="M71.0813 61.5968C69.9005 59.5409 68.1629 55.8576 67.8118 50.9795C67.6062 48.1135 67.9391 45.6726 68.3394 43.8684C71.3178 40.6886 76.2248 36.0294 82.9676 31.9922C82.9676 31.9922 89.4812 28.0919 96.6242 25.8134C96.8953 25.7276 97.3702 25.5762 98.0052 25.3974C100.449 24.7097 103.807 24.0328 107.83 24C111.527 23.9708 114.657 24.4944 117 25.0672C114.564 26.0815 111.08 27.6395 107.053 29.8359C102.423 32.3626 89.9124 39.6524 77.7277 53.3675C74.6801 56.7971 72.4259 59.7598 71.0831 61.595L71.0813 61.5968Z" fill="#E63946"/>
<path d="M117 25.5853C113.57 34.1431 109.226 43.3813 103.682 52.9497C101.586 56.5691 99.4534 59.9988 97.3174 63.2424C94.7284 63.9301 91.4388 64.5394 87.6089 64.6343C81.3592 64.7875 76.2539 63.5014 72.8716 62.3357C79.5489 53.4605 89.4138 42.699 103.438 33.3842C108.118 30.2756 112.686 27.7106 117.002 25.5853H117Z" fill="#E63946"/>
<path d="M49.4938 95.4356C49.3846 95.4812 48.9152 95.6874 48.8115 96.1197C48.7842 96.2347 48.7369 96.5539 49.2209 97.1596C49.7831 97.8619 50.5108 98.2614 51.1676 98.5187C52.3666 98.9875 53.3946 99.0058 53.9914 99.0112C54.6991 99.0167 55.7581 98.9474 56.9989 98.5552C57.0098 98.8762 57.0135 100.135 56.0856 101.23C55.9782 101.355 54.8738 102.62 53.1872 102.589C52.7505 102.581 52.3939 102.488 52.1574 102.412C52.2975 102.589 52.7742 103.233 52.7505 104.17C52.7214 105.292 51.9973 105.982 51.8627 106.106C49.3155 104.411 46.7683 102.716 44.2211 101.023C44.403 100.77 44.9143 100.13 45.8313 99.8194C46.4262 99.6187 46.9484 99.6388 47.2504 99.6753C46.3662 98.9747 46.046 97.7944 46.4408 96.8184C46.8974 95.6874 48.2256 95.0489 49.4938 95.4356Z" fill="#34D4C8"/>
<path d="M43.6971 102.029L51.044 106.976C49.9396 107.381 48.1183 108.244 46.7683 110.088C46.519 110.429 46.2188 110.895 45.824 111.759C44.7324 114.153 44.414 116.331 43.9846 120.268C43.7663 122.264 43.5879 124.097 43.4388 125.741C42.6309 125.958 41.7958 126.211 40.9389 126.511C40.9389 126.511 39.6307 126.905 38.308 127.547C34.7273 129.287 30.3862 132.845 30.3862 132.845C28.8451 134.109 26.8729 135.822 24.6877 138C27.8863 134.136 31.0921 129.946 34.2343 125.416C35.093 124.177 35.9245 122.946 36.7305 121.722C36.8488 121.736 37.9914 121.868 38.7465 121.04C39.4797 120.235 39.5361 118.872 38.7246 117.995C37.9659 117.174 36.6978 117.05 35.8154 117.663C34.822 118.352 34.549 119.817 35.2986 120.903C31.5324 126.403 27.7662 131.903 24 137.403C26.1378 133.877 27.2422 130.776 27.8481 128.619C28.323 126.928 28.5777 125.513 28.8106 124.197C29.4237 120.733 29.6493 117.827 29.7385 115.784C31.2995 115.461 37.8331 113.925 41.5284 107.903C42.8547 105.743 43.4333 103.627 43.6989 102.034L43.6971 102.029Z" fill="#34D4C8"/>
</svg>
