<svg width="53" height="62" viewBox="0 0 53 62" fill="none" xmlns="http://www.w3.org/2000/svg">
<path d="M16.9525 37.7697C16.7086 37.0982 16.3897 36.088 16.1803 34.8307C15.3667 29.9578 16.9379 25.9621 17.7316 24.0981C18.8873 21.3847 20.2318 19.4603 21.6874 17.4529C22.8216 15.8879 23.8791 14.6488 24.6788 13.7656C24.3893 14.66 24.06 16.1031 24.2583 17.8383C24.3151 18.3386 24.466 19.2961 24.9262 20.4143C25.2701 21.2525 25.6751 21.9041 25.9992 22.3603C24.1859 25.1463 22.7725 27.4881 21.7624 29.2138C20.536 31.3076 19.3329 33.4714 18.4271 35.0986C17.8109 36.2064 17.3041 37.1285 16.9534 37.7688L16.9525 37.7697Z" stroke="#FDFDFD" stroke-width="8" stroke-linejoin="round"/>
<path d="M38.3699 23.1C34.39 28.6055 31.3762 32.5952 30.5471 33.601C30.2704 33.9363 29.7257 34.587 28.8682 35.3008C28.5933 35.5298 28.2891 35.7605 27.9504 35.9886C26.7266 36.8156 25.2675 37.3194 23.2318 37.8811C22.1632 38.1758 20.8006 38.5249 19.1984 38.8662C19.2588 38.8101 19.3372 38.7262 19.4122 38.613C19.4561 38.5465 19.5475 38.4056 19.5975 38.1983C19.6164 38.1196 19.6363 38.0047 19.6311 37.8638C19.6328 37.7852 19.6311 37.4715 19.407 37.2546C19.1329 36.991 18.6331 36.9738 18.2289 37.2658C18.309 37.1138 18.4383 36.8882 18.5779 36.6048C19.9672 33.7886 21.5883 30.8125 23.4835 27.7387C24.5858 25.9517 25.6967 24.2683 26.8007 22.6852C27.6315 22.9799 28.5623 23.2461 29.5861 23.4422C33.1757 24.1301 36.2834 23.6462 38.3691 23.1H38.3699Z" stroke="#FDFDFD" stroke-width="8" stroke-linejoin="round"/>
<path d="M26.3017 21.809C25.7424 20.8351 24.9193 19.0904 24.753 16.7797C24.6556 15.4222 24.8133 14.266 25.0029 13.4113C26.4137 11.9051 28.7381 9.69813 31.932 7.78579C31.932 7.78579 35.0174 5.93826 38.401 4.85896C38.5294 4.81834 38.7543 4.74662 39.0551 4.66193C40.2125 4.33615 41.8035 4.01556 43.709 4C45.4602 3.98618 46.9426 4.23418 48.0526 4.50552C46.8986 4.98598 45.2482 5.72396 43.341 6.76438C41.1476 7.96121 35.2217 11.4143 29.45 17.9109C28.0064 19.5355 26.9386 20.9388 26.3025 21.8082L26.3017 21.809Z" stroke="#FDFDFD" stroke-width="8" stroke-linejoin="round"/>
<path d="M48.0526 4.75092C46.4281 8.80459 44.37 13.1806 41.744 17.713C40.7512 19.4274 39.7411 21.052 38.7293 22.5885C37.5029 22.9142 35.9447 23.2029 34.1306 23.2478C31.1702 23.3204 28.7519 22.7112 27.1497 22.159C30.3126 17.9549 34.9855 12.8574 41.6285 8.44511C43.8452 6.97262 46.0092 5.75764 48.0535 4.75092H48.0526Z" stroke="#FDFDFD" stroke-width="8" stroke-linejoin="round"/>
<path d="M16.076 37.8379C16.0243 37.8595 15.802 37.9572 15.7528 38.162C15.7399 38.2164 15.7175 38.3676 15.9467 38.6545C16.2131 38.9872 16.5578 39.1765 16.8689 39.2983C17.4369 39.5204 17.9238 39.529 18.2065 39.5316C18.5417 39.5342 19.0433 39.5014 19.6311 39.3156C19.6363 39.4677 19.638 40.0639 19.1984 40.5824C19.1476 40.642 18.6245 41.2409 17.8255 41.2262C17.6187 41.2227 17.4498 41.1787 17.3377 41.1424C17.4041 41.2262 17.6299 41.5312 17.6187 41.9754C17.6049 42.5068 17.2619 42.8335 17.1981 42.8922C15.9916 42.0895 14.785 41.2867 13.5784 40.4848C13.6646 40.3646 13.9068 40.0613 14.3412 39.9144C14.623 39.8194 14.8703 39.8289 15.0134 39.8462C14.5945 39.5143 14.4428 38.9552 14.6299 38.4929C14.8462 37.9572 15.4753 37.6547 16.076 37.8379Z" stroke="#FDFDFD" stroke-width="8" stroke-linejoin="round"/>
<path d="M13.3302 40.9609L16.8103 43.3044C16.2872 43.4963 15.4245 43.905 14.785 44.7786C14.6669 44.9402 14.5247 45.1606 14.3377 45.5702C13.8206 46.7039 13.6698 47.7357 13.4664 49.6005C13.363 50.5459 13.2785 51.4144 13.2078 52.1929C12.8252 52.2958 12.4296 52.4159 12.0237 52.5576C12.0237 52.5576 11.404 52.7443 10.7775 53.0484C9.08137 53.8728 7.02504 55.5579 7.02504 55.5579C6.29506 56.1567 5.36084 56.9682 4.32577 58C5.84088 56.1697 7.35943 54.1848 8.84781 52.0391C9.2546 51.4524 9.64846 50.8691 10.0303 50.2892C10.0863 50.2962 10.6275 50.3584 10.9852 49.9661C11.3325 49.585 11.3592 48.9395 10.9748 48.5238C10.6154 48.135 10.0147 48.0762 9.59675 48.3665C9.12619 48.6932 8.99691 49.3871 9.35199 49.9012C7.56799 52.5066 5.784 55.112 4 57.7174C5.01265 56.047 5.53579 54.578 5.82278 53.5566C6.04772 52.7555 6.16837 52.0849 6.27869 51.4619C6.56913 49.8209 6.67599 48.4443 6.71822 47.4765C7.45768 47.3235 10.5525 46.5959 12.3029 43.7434C12.9312 42.7203 13.2052 41.7179 13.3311 40.9635L13.3302 40.9609Z" stroke="#FDFDFD" stroke-width="8" stroke-linejoin="round"/>
<path d="M16.9525 37.7697C16.7086 37.0982 16.3897 36.088 16.1803 34.8307C15.3667 29.9578 16.9379 25.9621 17.7316 24.0981C18.8873 21.3847 20.2318 19.4603 21.6874 17.4529C22.8216 15.8879 23.8791 14.6488 24.6788 13.7656C24.3893 14.66 24.06 16.1031 24.2583 17.8383C24.3151 18.3386 24.466 19.2961 24.9262 20.4143C25.2701 21.2525 25.6751 21.9041 25.9992 22.3603C24.1859 25.1463 22.7725 27.4881 21.7624 29.2138C20.536 31.3076 19.3329 33.4714 18.4271 35.0986C17.8109 36.2064 17.3041 37.1285 16.9534 37.7688L16.9525 37.7697Z" fill="#E63946"/>
<path d="M38.3699 23.1C34.39 28.6055 31.3762 32.5952 30.5471 33.601C30.2704 33.9363 29.7257 34.587 28.8682 35.3008C28.5933 35.5298 28.2891 35.7605 27.9504 35.9886C26.7266 36.8156 25.2675 37.3194 23.2318 37.8811C22.1632 38.1758 20.8006 38.5249 19.1984 38.8662C19.2588 38.8101 19.3372 38.7262 19.4122 38.613C19.4561 38.5465 19.5475 38.4056 19.5975 38.1982C19.6164 38.1196 19.6363 38.0047 19.6311 37.8638C19.6328 37.7852 19.6311 37.4715 19.407 37.2546C19.1329 36.991 18.6331 36.9738 18.2289 37.2658C18.309 37.1138 18.4383 36.8882 18.5779 36.6048C19.9672 33.7886 21.5883 30.8125 23.4835 27.7387C24.5858 25.9517 25.6967 24.2683 26.8007 22.6852C27.6315 22.9799 28.5623 23.2461 29.5861 23.4422C33.1757 24.1301 36.2834 23.6462 38.3691 23.1H38.3699Z" fill="#E63946"/>
<path d="M26.3017 21.809C25.7424 20.8351 24.9193 19.0904 24.753 16.7797C24.6556 15.4222 24.8133 14.266 25.0029 13.4113C26.4137 11.9051 28.7381 9.69813 31.932 7.78579C31.932 7.78579 35.0174 5.93826 38.401 4.85896C38.5294 4.81834 38.7543 4.74662 39.0551 4.66193C40.2125 4.33615 41.8035 4.01556 43.709 4C45.4602 3.98618 46.9426 4.23418 48.0526 4.50552C46.8986 4.98598 45.2482 5.72396 43.341 6.76438C41.1476 7.96121 35.2217 11.4143 29.45 17.9109C28.0064 19.5355 26.9386 20.9388 26.3025 21.8082L26.3017 21.809Z" fill="#E63946"/>
<path d="M48.0526 4.75092C46.4281 8.80459 44.37 13.1806 41.744 17.713C40.7512 19.4274 39.7411 21.052 38.7293 22.5885C37.5029 22.9142 35.9447 23.2029 34.1306 23.2478C31.1702 23.3204 28.7519 22.7112 27.1497 22.159C30.3126 17.9549 34.9855 12.8574 41.6285 8.44511C43.8452 6.97262 46.0092 5.75764 48.0535 4.75092H48.0526Z" fill="#E63946"/>
<path d="M16.076 37.8379C16.0243 37.8595 15.802 37.9572 15.7528 38.162C15.7399 38.2164 15.7175 38.3676 15.9467 38.6545C16.2131 38.9872 16.5578 39.1765 16.8689 39.2983C17.4369 39.5204 17.9238 39.529 18.2065 39.5316C18.5417 39.5342 19.0433 39.5014 19.6311 39.3156C19.6363 39.4677 19.638 40.0639 19.1984 40.5824C19.1476 40.642 18.6245 41.2409 17.8255 41.2262C17.6187 41.2227 17.4498 41.1787 17.3377 41.1424C17.4041 41.2262 17.6299 41.5312 17.6187 41.9754C17.6049 42.5068 17.2619 42.8335 17.1981 42.8922C15.9916 42.0895 14.785 41.2867 13.5784 40.4848C13.6646 40.3646 13.9068 40.0613 14.3412 39.9144C14.623 39.8194 14.8703 39.8289 15.0134 39.8462C14.5945 39.5143 14.4428 38.9552 14.6299 38.4929C14.8462 37.9572 15.4753 37.6547 16.076 37.8379Z" fill="#E63946"/>
<path d="M13.3302 40.9609L16.8103 43.3044C16.2872 43.4963 15.4245 43.905 14.785 44.7786C14.6669 44.9402 14.5247 45.1606 14.3377 45.5702C13.8206 46.7039 13.6698 47.7357 13.4664 49.6005C13.363 50.5459 13.2785 51.4144 13.2078 52.1929C12.8252 52.2958 12.4296 52.4159 12.0237 52.5576C12.0237 52.5576 11.404 52.7443 10.7775 53.0484C9.08137 53.8728 7.02504 55.5579 7.02504 55.5579C6.29506 56.1567 5.36084 56.9682 4.32577 58C5.84088 56.1697 7.35943 54.1848 8.84782 52.0391C9.2546 51.4524 9.64846 50.8691 10.0303 50.2892C10.0863 50.2962 10.6275 50.3584 10.9852 49.9661C11.3325 49.585 11.3592 48.9395 10.9748 48.5238C10.6154 48.135 10.0147 48.0762 9.59675 48.3665C9.12619 48.6932 8.99691 49.3871 9.35199 49.9012C7.56799 52.5066 5.784 55.112 4 57.7174C5.01265 56.047 5.53579 54.578 5.82278 53.5566C6.04772 52.7555 6.16837 52.0849 6.27869 51.4619C6.56913 49.8209 6.67599 48.4443 6.71822 47.4765C7.45768 47.3235 10.5525 46.5959 12.3029 43.7434C12.9312 42.7203 13.2052 41.7179 13.3311 40.9635L13.3302 40.9609Z" fill="#E63946"/>
</svg>
